<?xml version="1.0" standalone="no"?>
<!DOCTYPE svg PUBLIC "-//W3C//DTD SVG 20010904//EN"
 "http://www.w3.org/TR/2001/REC-SVG-20010904/DTD/svg10.dtd">
<svg version="1.0" xmlns="http://www.w3.org/2000/svg"
 width="16.000000pt" height="16.000000pt" viewBox="0 0 16.000000 16.000000"
 preserveAspectRatio="xMidYMid meet">
<metadata>
Created by potrace 1.11, written by Peter Selinger 2001-2013
</metadata>
<g transform="translate(0.000000,16.000000) scale(0.001858,-0.001858)"
fill="#000000" stroke="none">
<path d="M4099 8599 c-1509 -97 -2750 -1239 -2970 -2732 -88 -605 -2 -1268
256 -1961 337 -907 989 -1909 1866 -2867 261 -286 763 -779 989 -972 l65 -55
59 51 c222 192 580 538 836 809 1262 1336 2047 2685 2254 3873 45 261 59 444
53 720 -10 503 -106 899 -322 1340 -164 336 -338 579 -604 846 -197 198 -306
288 -510 424 -469 310 -1003 487 -1586 525 -167 11 -205 11 -386 -1z m557
-523 c332 -49 598 -134 890 -285 699 -363 1213 -1033 1383 -1806 46 -208 56
-310 55 -575 0 -272 -10 -372 -60 -595 -64 -284 -219 -645 -376 -880 -414
-618 -1055 -1042 -1768 -1169 -253 -44 -577 -54 -809 -22 -611 82 -1139 342
-1566 771 -407 408 -657 895 -756 1475 -27 159 -37 512 -20 686 48 476 235
959 520 1338 467 621 1147 1000 1928 1076 121 12 457 3 579 -14z"/>
<path d="M4090 7189 c-398 -45 -782 -230 -1065 -514 -424 -423 -606 -1028
-489 -1620 43 -216 163 -494 292 -675 76 -106 231 -272 330 -353 417 -340 964
-474 1494 -366 223 46 485 161 678 297 122 86 326 290 412 412 454 641 443
1495 -27 2119 -91 120 -271 295 -395 383 -181 129 -460 249 -675 292 -177 35
-384 44 -555 25z m424 -911 c213 -35 452 -196 573 -386 109 -169 159 -387 133
-578 -46 -354 -279 -631 -620 -739 -114 -37 -297 -46 -421 -21 -331 67 -598
320 -685 651 -26 97 -26 332 0 425 73 265 248 474 490 585 163 76 334 96 530
63z"/>
</g>
</svg>
